<svg version="1.1" xmlns="http://www.w3.org/2000/svg" width="1024" height="1024">

<path d="M0 0 C1.3858165 -0.00322404 2.77162899 -0.00904838 4.15742493 -0.01725769 C7.90657882 -0.0317424 11.65465323 -0.00890064 15.40367675 0.02160144 C19.35229958 0.04811886 23.30089426 0.04266674 27.24958801 0.04151917 C33.89313566 0.04432601 40.53627159 0.07030926 47.1796875 0.11132812 C54.80601076 0.15824908 62.43188104 0.17433079 70.05833834 0.17212147 C78.23418387 0.17007452 86.40985992 0.19103837 94.58565354 0.21846128 C96.91120149 0.22478401 99.23672113 0.22697512 101.56227684 0.22817802 C122.66341577 0.24924847 143.30670274 0.86959697 163.70629883 6.85375977 C164.74689453 7.15378906 165.78749023 7.45381836 166.85961914 7.76293945 C177.36670186 10.90258251 187.33032463 14.98342898 197.20629883 19.72875977 C198.08801758 20.1517334 198.96973633 20.57470703 199.87817383 21.01049805 C216.66108606 29.1806477 231.61485336 38.8923946 245.20629883 51.72875977 C246.47375912 52.79528123 247.74453147 53.85788068 249.01879883 54.91625977 C269.13515017 72.55862435 283.9252966 95.68330351 295.20629883 119.72875977 C295.5440332 120.43758301 295.88176758 121.14640625 296.22973633 121.87670898 C307.68732535 146.04640687 315.2042356 172.58526199 315.44458008 199.45922852 C315.45428329 200.36423599 315.46398651 201.26924347 315.47398376 202.20167542 C315.49877346 205.10658246 315.51148808 208.01125774 315.51879883 210.91625977 C315.52141724 211.90541382 315.52403564 212.89456787 315.5267334 213.91369629 C315.53081396 228.26618102 314.8455075 241.78592163 311.20629883 255.72875977 C310.88596891 257.13382861 310.57075361 258.54007454 310.26098633 259.94750977 C306.73414146 275.55039095 301.44244101 290.47483974 294.20629883 304.72875977 C293.88371094 305.36974609 293.56112305 306.01073242 293.22875977 306.67114258 C289.11257173 314.79488026 284.60750454 322.38267546 279.20629883 329.72875977 C278.44540472 330.82689133 277.68779937 331.92730632 276.93286133 333.02954102 C271.2811207 341.22699859 265.13590249 348.58754659 258.20629883 355.72875977 C257.29750977 356.67750977 256.3887207 357.62625977 255.45239258 358.60375977 C245.63849711 368.65497561 234.85437071 376.94905124 223.20629883 384.72875977 C222.31297852 385.3359082 221.4196582 385.94305664 220.49926758 386.56860352 C200.63744025 399.70063628 177.91118195 408.03649188 155.20629883 414.72875977 C154.14540039 415.04586914 153.08450195 415.36297852 151.99145508 415.68969727 C135.12055549 420.29760817 116.97074748 422.85055371 99.48754883 422.93188477 C98.48003571 422.9389444 97.47252258 422.94600403 96.43447876 422.95327759 C54.2346232 423.18178421 54.2346232 423.18178421 36.20629883 419.72875977 C35.13976074 419.53008301 34.07322266 419.33140625 32.97436523 419.12670898 C6.79376037 414.11436028 -28.79207939 406.66583403 -47.54370117 385.77954102 C-49.692709 382.25382504 -49.45515324 378.71880935 -48.79370117 374.72875977 C-46.99976449 371.85846108 -45.81106841 370.23744338 -42.79370117 368.72875977 C-40.80541992 368.52563477 -40.80541992 368.52563477 -38.48120117 368.47875977 C-37.72194336 368.45297852 -36.96268555 368.42719727 -36.18041992 368.40063477 C-31.49502464 369.04478076 -27.99700757 372.2828038 -24.29370117 375.04125977 C-18.47088268 379.13529463 -12.32933238 381.95629178 -5.79370117 384.72875977 C-4.67479492 385.2224707 -3.55588867 385.71618164 -2.40307617 386.22485352 C20.26083629 395.83455208 44.98063223 400.8268694 69.56567383 400.93188477 C70.63134583 400.93758484 71.69701782 400.94328491 72.79498291 400.94915771 C75.04389471 400.95855503 77.29281995 400.96512057 79.54174805 400.96899414 C82.90545198 400.97861434 86.26852123 401.00965387 89.63208008 401.04125977 C103.73794783 401.11054929 117.30389318 400.1209386 131.20629883 397.72875977 C132.96200195 397.43050293 132.96200195 397.43050293 134.75317383 397.1262207 C137.4608585 396.62890929 140.14476081 396.07905133 142.83129883 395.47875977 C143.77529541 395.26896484 144.71929199 395.05916992 145.69189453 394.84301758 C194.64668594 383.48429306 240.04664955 353.7958716 266.85913086 310.96411133 C276.79983612 294.46953044 284.06635532 277.2745151 289.20629883 258.72875977 C289.44405029 257.87830078 289.68180176 257.0278418 289.92675781 256.15161133 C291.9739692 248.47060118 293.10157107 240.88094663 293.89379883 232.97875977 C294.01972412 231.74375732 294.14564941 230.50875488 294.27539062 229.23632812 C299.28518091 177.62904365 282.91284195 124.97576913 250.06176758 84.84594727 C247.18640919 81.4032556 244.22483019 78.04620046 241.20629883 74.72875977 C240.5334082 73.98368164 239.86051758 73.23860352 239.16723633 72.47094727 C221.41131786 53.8083436 197.87989575 41.14645297 174.20629883 31.72875977 C173.46092645 31.43146784 172.71555407 31.13417591 171.94759464 30.82787514 C149.20185418 22.1312751 125.448278 20.83046046 101.39880109 21.12039614 C97.64207624 21.15889058 93.88529437 21.16150365 90.12840271 21.16854858 C83.07075423 21.1869166 76.013689 21.2357563 68.95629305 21.29664552 C60.89776984 21.36460581 52.83921304 21.39692032 44.78047287 21.42681813 C28.25541126 21.48889456 11.73093036 21.59385842 -4.79370117 21.72875977 C-4.86393955 47.77266646 -4.91676181 73.81655884 -4.94913769 99.86054134 C-4.96457331 111.95458591 -4.98559934 124.04857145 -5.02001953 136.14257812 C-5.05002339 146.68991865 -5.06930017 157.23721639 -5.07596666 167.78459841 C-5.07986036 173.36371031 -5.08894153 178.94269989 -5.11089134 184.52177238 C-5.13143044 189.78550582 -5.13750016 195.0490679 -5.13302422 200.3128376 C-5.13384169 202.2327124 -5.13970258 204.15259363 -5.1513176 206.07243347 C-5.29866923 231.710971 -0.66219192 255.5388184 16.20629883 275.72875977 C16.9874707 276.72842773 16.9874707 276.72842773 17.78442383 277.74829102 C31.64503873 294.80492149 55.63188551 305.09728655 77.06567383 307.45141602 C106.03612806 309.67608534 137.35610205 305.65462882 161.20629883 287.72875977 C162.11379883 287.05200195 163.02129883 286.37524414 163.95629883 285.67797852 C183.42885781 270.4515192 196.90617895 248.58551739 200.79223633 224.02563477 C203.68465456 198.22847452 199.16258411 171.8640853 182.83276367 150.97143555 C167.46155362 132.64640073 146.47861042 119.5588344 122.33911133 117.18579102 C115.4208899 116.58423167 108.52124907 116.58209499 101.58129883 116.60375977 C99.66510742 116.59795898 99.66510742 116.59795898 97.71020508 116.59204102 C96.49977539 116.59333008 95.2893457 116.59461914 94.04223633 116.59594727 C92.39553955 116.59763916 92.39553955 116.59763916 90.71557617 116.59936523 C88.26702341 116.44478388 88.26702341 116.44478388 87.20629883 117.72875977 C87.10495406 119.1142093 87.07063307 120.50466133 87.06445312 121.89379883 C87.05741867 122.77851868 87.05038422 123.66323853 87.0431366 124.57476807 C87.03689018 126.01997833 87.03689018 126.01997833 87.03051758 127.49438477 C87.00731391 129.51913468 86.98319636 131.5438743 86.95825195 133.56860352 C86.92315366 136.77261179 86.89380938 139.97624296 86.88037109 143.18041992 C86.86489009 146.26471133 86.8246702 149.34788793 86.78051758 152.43188477 C86.78242599 153.38726135 86.78433441 154.34263794 86.78630066 155.32696533 C86.70779924 159.59849735 86.59223226 162.08545243 84.35791016 165.80981445 C80.97121266 168.83028901 77.67900984 169.11673054 73.21020508 169.09204102 C69.84640306 168.48222895 68.27126317 166.29432152 66.20629883 163.72875977 C65.87629883 163.39875977 65.54629883 163.06875977 65.20629883 162.72875977 C65.08624149 160.88951139 65.03609662 159.04565991 65.01342773 157.20263672 C64.99736481 156.02083328 64.98130188 154.83902985 64.9647522 153.62141418 C64.92044553 148.19698483 64.87877211 142.77270298 64.85620117 137.34814453 C64.83959511 133.77794308 64.79486135 130.20867235 64.74382973 126.6388216 C64.7100878 123.88920595 64.69861603 121.1398086 64.69297409 118.39000511 C64.68302563 116.43679809 64.64879884 114.48376331 64.61416626 112.53083801 C64.63773672 102.62670512 64.63773672 102.62670512 67.61401367 98.93652344 C71.03326147 96.02446299 72.543523 95.60279368 76.92456055 95.58349609 C77.90673553 95.57711624 78.88891052 95.57073639 79.90084839 95.56416321 C80.96844391 95.56305038 82.03603943 95.56193756 83.13598633 95.56079102 C84.23669464 95.55746262 85.33740295 95.55413422 86.47146606 95.55070496 C88.81015606 95.54563149 91.14885333 95.54329676 93.48754883 95.54345703 C97.03194535 95.54128994 100.57602074 95.52319269 104.12036133 95.50415039 C106.39640194 95.50121252 108.67244402 95.49923036 110.94848633 95.49829102 C112.51951614 95.48751274 112.51951614 95.48751274 114.12228394 95.47651672 C142.87406447 95.56378009 170.44006409 107.92332643 190.83129883 127.91625977 C205.23026896 142.49220524 214.69194288 160.05253512 220.20629883 179.72875977 C220.68583008 181.42645508 220.68583008 181.42645508 221.17504883 183.15844727 C226.09864825 203.62785598 224.50436877 227.94633187 217.20629883 247.72875977 C216.64362305 249.37811523 216.64362305 249.37811523 216.06958008 251.06079102 C207.46836335 274.59707175 190.29257884 295.3181174 169.20629883 308.72875977 C168.10286133 309.4390332 166.99942383 310.14930664 165.86254883 310.88110352 C135.09234515 329.82006199 95.19978805 334.40531485 60.15551758 326.91625977 C41.54916302 322.27916206 24.74658761 314.28740783 10.20629883 301.72875977 C9.08674805 300.82577148 9.08674805 300.82577148 7.94458008 299.90454102 C-11.77565852 283.48821674 -23.61365753 257.4995611 -26.31338501 232.29045105 C-27.10786297 223.29424329 -26.96714735 214.2614909 -26.98657227 205.23779297 C-26.99448579 203.17035794 -27.00275549 201.10292424 -27.01135254 199.03549194 C-27.03740175 192.28352142 -27.05285093 185.53154517 -27.06713867 178.77954102 C-27.07250313 176.44843226 -27.07788065 174.11732353 -27.08327103 171.78621483 C-27.10486385 162.09310218 -27.12360284 152.39999109 -27.13489342 142.70686054 C-27.15115776 128.83954705 -27.18443715 114.97251245 -27.24129426 101.10530406 C-27.27997815 91.33688519 -27.29952358 81.56854104 -27.30481398 71.80004758 C-27.30846602 65.97147847 -27.32047473 60.14320804 -27.35291672 54.31472206 C-27.38297411 48.83737588 -27.38931731 43.36050965 -27.37753296 37.8830986 C-27.37731212 35.87557244 -27.38562597 33.86802409 -27.4031868 31.86057472 C-27.42589093 29.11552377 -27.41757833 26.37221223 -27.40170288 23.62715149 C-27.41558497 22.83696745 -27.42946706 22.04678341 -27.44376981 21.23265439 C-27.34490397 14.27365399 -24.45402074 9.8666938 -20.04035473 4.66063023 C-13.86907925 -0.38070322 -7.70520348 -0.10110769 0 0 Z " fill="#3352C1" transform="translate(386.793701171875,192.271240234375)" data-index="1" style="opacity: 1; visibility: visible;"></path>
<path d="M0 0 C1.36674866 -0.01226624 1.36674866 -0.01226624 2.7611084 -0.02478027 C5.79727534 -0.04971047 8.83339433 -0.06619354 11.86962891 -0.08056641 C12.91403767 -0.08589008 13.95844643 -0.09121376 15.03450394 -0.09669876 C20.59102901 -0.12349687 26.14753139 -0.14282736 31.70410156 -0.15722656 C36.25249006 -0.17041776 40.800414 -0.19797942 45.34863281 -0.23925781 C83.07733898 -0.57401926 117.40380747 0.85079607 151.22119141 19.19287109 C151.84010254 19.5204541 152.45901367 19.84803711 153.09667969 20.18554688 C161.58995728 24.69149668 168.96328047 29.88942516 176.22119141 36.19287109 C177.37780156 37.14612122 178.53677868 38.09650461 179.69775391 39.04443359 C187.12261529 45.15867329 193.47742718 51.41943427 199.22119141 59.19287109 C199.62289551 59.72638184 200.02459961 60.25989258 200.43847656 60.80957031 C226.54540419 95.56197302 238.14998835 137.74545833 232.97119141 181.00537109 C232.83551758 182.14047119 232.69984375 183.27557129 232.56005859 184.44506836 C228.59770202 215.83757622 215.34201277 248.19885942 193.22119141 271.19287109 C192.06885714 272.54151009 190.92271032 273.89546767 189.78369141 275.25537109 C161.37504499 307.62047283 114.67100408 325.21139914 72.65869141 328.88037109 C25.11595525 331.5155343 -21.45981994 325.06742561 -58.21630859 292.50537109 C-59.74501906 291.07625088 -61.26666369 289.63950791 -62.77880859 288.19287109 C-63.69533203 287.35369141 -63.69533203 287.35369141 -64.63037109 286.49755859 C-70.87792383 280.59233752 -79.76401341 271.80068403 -80.15380859 262.88037109 C-80.13510443 259.00860998 -79.92748968 258.3758632 -77.34130859 255.19287109 C-76.07287109 254.20287109 -76.07287109 254.20287109 -74.77880859 253.19287109 C-74.44880859 252.86287109 -74.11880859 252.53287109 -73.77880859 252.19287109 C-68.99495022 251.78745937 -65.3171892 251.57104363 -61.31787109 254.61865234 C-59.33148745 256.65041024 -57.78535886 258.86640127 -56.15380859 261.19287109 C-41.11248558 282.58687409 -17.07261941 297.19686991 8.22119141 303.19287109 C8.86137207 303.37043945 9.50155273 303.54800781 10.16113281 303.73095703 C35.15047723 310.58669667 66.00652355 309.50883341 91.22119141 304.19287109 C93.13738281 303.79261719 93.13738281 303.79261719 95.09228516 303.38427734 C98.85950179 302.47187288 102.5405362 301.39964329 106.22119141 300.19287109 C107.04586914 299.92345703 107.87054687 299.65404297 108.72021484 299.37646484 C147.11404464 286.60156433 178.35365411 263.49496818 197.22119141 227.19287109 C202.73239765 215.72784322 207.6426946 203.76281878 209.84619141 191.19287109 C209.96736328 190.54576172 210.08853516 189.89865234 210.21337891 189.23193359 C214.38511307 166.28739572 212.75975978 142.51968992 206.22119141 120.19287109 C205.86154297 118.95021484 205.50189453 117.70755859 205.13134766 116.42724609 C195.50369863 85.43723777 175.38525363 59.75414135 148.22119141 42.19287109 C147.30080078 41.58701172 146.38041016 40.98115234 145.43212891 40.35693359 C124.60290089 27.39000573 98.81483984 20.99069077 74.35229492 21.06347656 C73.61146164 21.06172424 72.87062836 21.05997192 72.10734558 21.0581665 C69.68823828 21.05380775 67.26920554 21.05666256 64.85009766 21.06005859 C63.15998826 21.05938434 61.46987896 21.0584133 59.7797699 21.05715942 C56.25380522 21.055691 52.727866 21.0578113 49.2019043 21.0625 C44.67336053 21.06822754 40.14487563 21.06489389 35.61633396 21.05892754 C32.13434907 21.0553249 28.6523783 21.0564586 25.17039299 21.05905533 C23.49935842 21.05972384 21.82832259 21.0588988 20.15728951 21.05657578 C17.8329334 21.05405084 15.50867495 21.05788613 13.18432617 21.06347656 C12.14258743 21.06044022 12.14258743 21.06044022 11.07980347 21.05734253 C7.87224111 20.80195451 7.87224111 20.80195451 5.22119141 22.19287109 C5.1183568 23.92609072 5.08598082 25.66352054 5.08074951 27.39978027 C5.07503937 28.52932632 5.06932922 29.65887238 5.06344604 30.82264709 C5.06232819 32.07339523 5.06121033 33.32414337 5.06005859 34.61279297 C5.05509369 35.92187119 5.05012878 37.2309494 5.04501343 38.57969666 C5.03185411 42.18603525 5.02543522 45.79235519 5.02100277 49.39871407 C5.0180719 51.65738805 5.01396661 53.91605696 5.0094986 56.17472839 C4.99580161 63.25635267 4.98615118 70.33796531 4.98229671 77.41960192 C4.9778392 85.56346849 4.96040906 93.70716527 4.93129611 101.85098028 C4.90953831 108.15949762 4.89958464 114.46796777 4.89825559 120.77652216 C4.89721566 124.5358091 4.8914863 128.29493694 4.87343597 132.05418396 C4.31524071 167.42470295 4.31524071 167.42470295 21.26416016 197.49365234 C34.3670916 208.8704491 51.04630757 213.91639214 68.22119141 213.06787109 C84.42733249 211.91001345 99.27204397 205.31914531 110.22119141 193.19287109 C117.87826746 182.85141781 122.52367598 170.13631159 121.22119141 157.19287109 C121.13869141 156.24927734 121.05619141 155.30568359 120.97119141 154.33349609 C119.30383278 140.92515384 112.61694215 130.22388046 102.32275391 121.60302734 C96.59333069 117.62627578 89.86989893 116.02506607 83.22119141 114.19287109 C80.91119141 113.53287109 78.60119141 112.87287109 76.22119141 112.19287109 C76.22119141 106.25287109 76.22119141 100.31287109 76.22119141 94.19287109 C93.70115868 94.19287109 109.31511436 99.70291248 122.34619141 111.75537109 C136.9453412 127.22566357 141.84125969 144.98411509 141.45556641 165.74755859 C140.79998211 184.45742033 132.42285369 201.03109299 119.22119141 214.19287109 C99.73119199 231.2687014 76.261755 235.61827587 51.22119141 234.19287109 C32.19703 232.16996491 12.99742545 221.92323464 0.78369141 207.19287109 C-0.43269676 205.54716946 -1.62169266 203.88077415 -2.77880859 202.19287109 C-3.32021484 201.41427734 -3.86162109 200.63568359 -4.41943359 199.83349609 C-18.83011224 177.56244728 -17.26776358 149.78461889 -17.28057981 124.30721974 C-17.28273776 121.88986103 -17.28918829 119.47255085 -17.29707146 117.05520439 C-17.32460751 108.59853834 -17.33709995 100.14201217 -17.3347168 91.68530273 C-17.33290316 83.83218113 -17.36483438 75.97967007 -17.41194779 68.12670332 C-17.45118566 61.34231314 -17.46726885 54.5581233 -17.46535057 47.77362055 C-17.46458823 43.73870651 -17.47300234 39.70434194 -17.50488472 35.66954231 C-17.53396303 31.88921042 -17.5341449 28.10995435 -17.51233482 24.32958412 C-17.50920518 22.94730298 -17.51623998 21.56495403 -17.5344162 20.18278885 C-17.67845489 8.46952351 -17.67845489 8.46952351 -13.85826111 3.87840271 C-9.59041683 -0.2629491 -5.72883314 0.02820706 0 0 Z " fill="#374CC9" transform="translate(422.77880859375,239.80712890625)" data-index="2" style="opacity: 1;"></path>

<path d="M0 0 C13.05393554 11.3056406 19.1419381 23.71433005 20.62890625 40.89453125 C21.20845108 54.97186207 16.15534347 67.57900941 7.125 78.1484375 C-1.39608318 87.20208838 -13.41984994 94.15262904 -26.06005859 95.15380859 C-43.11674448 95.66026049 -56.71251356 94.91332045 -70.625 83.9609375 C-71.32238281 83.42597656 -72.01976562 82.89101563 -72.73828125 82.33984375 C-81.74561448 74.99488087 -87.9299747 64.53828014 -89.625 52.9609375 C-90.66991939 36.93278275 -89.92043856 23.01674726 -79.625 9.9609375 C-79.11195313 9.27386719 -78.59890625 8.58679688 -78.0703125 7.87890625 C-69.65379288 -2.65181089 -56.74594184 -8.68455673 -43.59765625 -10.71875 C-28.1460303 -12.38370838 -12.52175972 -9.72672407 0 0 Z " fill="#2A1F4F" transform="translate(533.625,717.0390625)" data-index="4" style="opacity: 1; stroke-width: 2px; stroke: rgb(13, 153, 255); visibility: hidden;"></path>
<path d="M0 0 C7.32416108 4.69851843 11.74184659 12.71663542 14 21 C15.12438518 33.45585141 13.06114564 43.3156825 5 53 C-1.39448198 59.19212496 -8.59218831 62.05129625 -17.4375 62.4375 C-26.3317958 62.15178938 -34.73190261 58.33789803 -41 52 C-47.52264909 42.60605754 -50.21835077 32.26165187 -48.4375 20.875 C-46.38126911 12.34849591 -41.4283768 4.73522027 -34 0 C-23.06452447 -6.18260101 -11.07791366 -5.53895683 0 0 Z " fill="#FBFBFC" transform="translate(516,731)" data-index="5" style="opacity: 1;"></path>

<path d="M0 0 C3.64658202 2.12717284 5.43177141 4.13489843 7 8 C7.25726891 10.52130699 7.25726891 10.52130699 7.26742554 13.41390991 C7.27595551 14.51299179 7.28448547 15.61207367 7.29327393 16.74446106 C7.29236755 17.94560043 7.29146118 19.14673981 7.29052734 20.38427734 C7.30060318 22.28727348 7.30060318 22.28727348 7.31088257 24.22871399 C7.32853964 27.70606113 7.33323782 31.18330982 7.33451414 34.66069746 C7.33593648 36.83438228 7.34020765 39.00804212 7.34550858 41.18172073 C7.36400797 48.76829872 7.37217932 56.35480646 7.37060547 63.94140625 C7.36940412 71.00788108 7.39050511 78.07405044 7.4220928 85.14044797 C7.44826374 91.21192432 7.45897243 97.28330094 7.45769465 103.35483325 C7.45718524 106.9790697 7.46285607 110.60303466 7.48405075 114.22721481 C7.50705212 118.27066606 7.49790736 122.31343495 7.48583984 126.35693359 C7.49707886 127.55402451 7.50831787 128.75111542 7.51989746 129.98448181 C7.47232196 136.24957016 7.33648929 140.29567644 3 145 C0.30893093 146.34553453 -1.87165422 146.20594114 -4.875 146.25 C-6.44894531 146.28867187 -6.44894531 146.28867187 -8.0546875 146.328125 C-11.35527185 145.96042064 -12.66663604 145.3225111 -15 143 C-16.02533701 139.92398896 -16.13310059 137.80875968 -16.14717102 134.58572388 C-16.15432632 133.46132904 -16.16148163 132.3369342 -16.16885376 131.1784668 C-16.17154266 129.94410889 -16.17423157 128.70975098 -16.17700195 127.43798828 C-16.18357315 126.13860321 -16.19014435 124.83921814 -16.19691467 123.50045776 C-16.21793538 119.19042186 -16.22831359 114.88038568 -16.23828125 110.5703125 C-16.24232922 109.0860988 -16.24644616 107.60188529 -16.25063133 106.11767197 C-16.26967679 99.14607337 -16.28391049 92.17448533 -16.2922433 85.20286572 C-16.30202079 77.15562974 -16.32835608 69.10866845 -16.36874419 61.06152928 C-16.39889535 54.84063296 -16.41371112 48.61981544 -16.41702431 42.39884746 C-16.41937552 38.68351034 -16.42834492 34.9684669 -16.45348549 31.25320816 C-16.48107736 27.10889604 -16.4769382 22.96519887 -16.4699707 18.82080078 C-16.48278076 17.59049133 -16.49559082 16.36018188 -16.50878906 15.09259033 C-16.50184525 13.96255585 -16.49490143 12.83252136 -16.48774719 11.66824341 C-16.49013555 10.68858675 -16.4925239 9.70893009 -16.49498463 8.69958687 C-15.85798816 5.22548443 -14.40548047 3.53608287 -12 1 C-8.29778834 -0.85110583 -4.04093083 -0.46454795 0 0 Z " fill="#291E4D" transform="translate(590,664)" data-index="7" style="opacity: 1; stroke-width: 2px; stroke: rgb(13, 153, 255); visibility: hidden;"></path>
<path d="M0 0 C7.77286273 4.75165878 12.03251087 11.85743392 15.140625 20.30859375 C17.40940419 30.10617094 15.90736352 40.07347783 10.765625 48.74609375 C8.54401514 51.96175727 6.05535234 54.6928128 3.140625 57.30859375 C2.563125 57.84484375 1.985625 58.38109375 1.390625 58.93359375 C-5.72963013 63.28486077 -13.64162267 64.54279936 -21.859375 63.30859375 C-30.34534095 60.53251567 -37.02350232 55.85302012 -41.859375 48.30859375 C-46.36648252 39.28157443 -47.37804133 29.40911314 -45.26953125 19.55078125 C-42.35535095 10.98282258 -35.98639608 3.77020622 -28.234375 -0.81640625 C-19.46188984 -4.65607655 -8.58665557 -4.10851566 0 0 Z " fill="#FBFBFC" transform="translate(386.859375,729.69140625)" data-index="8"></path>

<path d="M0 0 C5.75374839 5.8845154 8.49150908 11.86138257 8.8828125 20.11328125 C8.52926748 27.29856386 5.39735887 34.34080241 0.75 39.8125 C-1.76705674 41.82410315 -4.38130868 43.35753746 -7.25 44.8125 C-8.054375 45.245625 -8.85875 45.67875 -9.6875 46.125 C-16.95488225 48.07478548 -24.48076543 46.9636954 -31.25 43.8125 C-38.17289686 39.28765989 -42.53329692 33.9584244 -44.25 25.8125 C-45.32790034 17.5136213 -44.95950407 10.91480773 -40.09375 3.9375 C-28.9365673 -8.92162582 -13.58542767 -9.14403785 0 0 Z " fill="#4920B9" transform="translate(514.25,380.1875)" data-index="10" style="opacity: 1;"></path>

<path d="M0 0 C0.66 0.33 1.32 0.66 2 1 C1.401875 1.721875 0.80375 2.44375 0.1875 3.1875 C-4.19369279 8.82046216 -5.43805331 12.5583203 -5.36749268 19.71398926 C-5.37076152 20.59113634 -5.37403036 21.46828341 -5.37739825 22.37201071 C-5.38468109 25.31133413 -5.37051924 28.25016012 -5.35644531 31.18945312 C-5.3572362 33.29715052 -5.35933351 35.40484777 -5.36264038 37.51254272 C-5.36777907 43.24027898 -5.35422621 48.96783587 -5.33711338 54.69554329 C-5.32207374 60.69525844 -5.32325118 66.6949713 -5.32244873 72.69470215 C-5.31875417 82.77924659 -5.30378305 92.86372306 -5.28125 102.94824219 C-5.25244305 115.86638501 -5.24203219 128.78447289 -5.2375679 141.70264435 C-5.23357553 152.82927809 -5.22107075 163.95590003 -5.20722103 175.08252525 C-5.20313558 178.64702197 -5.20020292 182.21151828 -5.19742584 185.77601624 C-5.19250176 191.39681215 -5.18224663 197.01757552 -5.16798782 202.63835526 C-5.16349641 204.69374421 -5.16063372 206.74913751 -5.15958023 208.8045311 C-5.1530279 219.25296893 -5.05702891 229.59479654 -4 240 C-10.6040553 230.09391705 -8.30368702 212.52242304 -8.30639648 201.05493164 C-8.31403393 198.98690497 -8.32246409 196.9188811 -8.33161926 194.8508606 C-8.35339591 189.2790697 -8.36233854 183.70733358 -8.36744571 178.13550496 C-8.37110478 174.64964552 -8.37735232 171.16380013 -8.3844471 167.67794609 C-8.40886843 155.50493623 -8.42198074 143.33196865 -8.42553711 131.15893555 C-8.42918214 119.8268898 -8.45916549 108.49511323 -8.50094169 97.16314989 C-8.53562697 87.41162601 -8.55108513 77.66019163 -8.55178314 67.90860647 C-8.55257557 62.09352479 -8.56130157 56.27871892 -8.58978081 50.46370125 C-8.61593591 45.00269881 -8.61818075 39.54220175 -8.60212517 34.08116531 C-8.60030956 32.08009298 -8.60701145 30.07899168 -8.62294388 28.07798195 C-8.64339946 25.3418824 -8.63285668 22.60755292 -8.61473083 19.87147522 C-8.6279308 19.08401966 -8.64113077 18.29656409 -8.65473074 17.48524624 C-8.55372129 10.78951571 -5.95433589 6.06341767 -1.33443254 1.27293545 C-0.8940698 0.85286675 -0.45370706 0.43279805 0 0 Z " fill="#4E3980" transform="translate(368,196)" data-index="12" style="opacity: 1;"></path>
<path d="M0 0 C2.65269298 2.65269298 2.25243766 3.87463577 2.25828552 7.57945251 C2.26511353 8.76638199 2.27194153 9.95331146 2.27897644 11.1762085 C2.27642349 12.48567444 2.27387054 13.79514038 2.27124023 15.14428711 C2.27562615 16.53245856 2.28092782 17.92062737 2.28707886 19.30879211 C2.29860299 22.30552213 2.30404014 25.30218121 2.30496025 28.29893303 C2.30690244 33.05527522 2.32497116 37.81147192 2.34571838 42.56776428 C2.39491811 54.39814249 2.4256301 66.22856088 2.44702148 78.059021 C2.46363086 87.22372039 2.48673548 96.3882964 2.53004223 105.55291373 C2.54809158 109.4966656 2.56045578 113.44024984 2.55874443 117.38404655 C1.92853995 143.78868687 1.92853995 143.78868687 7.60374451 169.30747986 C9 173 9 173 9 176 C9.66 176.33 10.32 176.66 11 177 C11.625 179.5625 11.625 179.5625 12 182 C2.45964963 174.19167753 1.39290855 155.70026406 0.2604332 144.40288544 C-0.60692905 133.06971286 -0.369451 121.65682082 -0.30418181 110.29733133 C-0.28511576 106.40436364 -0.28364149 102.51138487 -0.28010559 98.61837769 C-0.27087128 91.28439745 -0.2463775 83.9505553 -0.21605712 76.6166352 C-0.18224067 68.25112849 -0.16595944 59.88561432 -0.15097082 51.52005601 C-0.11981758 34.34662484 -0.06722958 17.17332713 0 0 Z " fill="#492599" transform="translate(406,255)" data-index="13"></path>
<path d="M0 0 C0.80081497 -0.00087616 1.60162994 -0.00175232 2.42671204 -0.00265503 C5.05185349 0.00149763 7.67438199 0.04803438 10.29907227 0.09521484 C12.12751368 0.10641537 13.95597318 0.11495151 15.78443909 0.12094116 C20.58037655 0.14377228 25.37521139 0.20264544 30.17071533 0.26916504 C35.07077114 0.33071154 39.97100637 0.35798251 44.87133789 0.38818359 C54.474034 0.45239486 64.07591431 0.55470439 73.67797852 0.68115234 C73.67797852 1.01115234 73.67797852 1.34115234 73.67797852 1.68115234 C55.89211734 2.63027011 38.15874588 2.76795311 20.35229492 2.64404297 C3.20932756 1.50985423 3.20932756 1.50985423 -12.32202148 6.68115234 C-13.74759505 9.23836971 -13.74759505 9.23836971 -14.32202148 11.68115234 C-14.65202148 11.68115234 -14.98202148 11.68115234 -15.32202148 11.68115234 C-15.75952148 9.55615234 -15.75952148 9.55615234 -15.32202148 6.68115234 C-10.92173524 1.29219033 -6.75554577 -0.19650695 0 0 Z " fill="#532BA9" transform="translate(422.322021484375,239.31884765625)" data-index="14"></path>
<path d="M0 0 C10.18211257 10.18211257 13.3727165 37.63286268 14.12890625 51.3359375 C14.12573221 52.89121544 14.07062168 54.44632303 14 56 C12.3360475 53.02501568 11.62494665 50.50299985 11.17578125 47.1328125 C11.03760986 46.17487793 10.89943848 45.21694336 10.75708008 44.22998047 C10.61036865 43.20533691 10.46365723 42.18069336 10.3125 41.125 C8.6931082 30.52989693 5.96571765 20.67557019 2.48828125 10.5546875 C1.29337282 7.05526162 0.45298247 3.68425743 0 0 Z " fill="#268AE4" transform="translate(669,330)" data-index="15" style="opacity: 1;"></path>
<path d="M0 0 C1.20090523 0.00022659 1.20090523 0.00022659 2.42607117 0.00045776 C3.28553848 0.01078033 4.1450058 0.02110291 5.03051758 0.03173828 C5.91411453 0.03456818 6.79771149 0.03739807 7.70808411 0.04031372 C10.53054337 0.05150981 13.35268545 0.07661327 16.17504883 0.10205078 C18.0884557 0.11208132 20.00186755 0.12120704 21.9152832 0.12939453 C26.60616065 0.15144727 31.29680096 0.18597316 35.98754883 0.22705078 C35.98754883 0.55705078 35.98754883 0.88705078 35.98754883 1.22705078 C34.31583618 1.24106934 34.31583618 1.24106934 32.61035156 1.25537109 C28.45207621 1.29542188 24.29452902 1.36122165 20.13671875 1.43457031 C18.34156694 1.4626928 16.5462933 1.48395053 14.75097656 1.49804688 C12.16123482 1.51959812 9.57294426 1.56630801 6.98364258 1.61767578 C5.79103065 1.61951874 5.79103065 1.61951874 4.57432556 1.62139893 C-1.03599544 1.76691211 -4.340983 3.10730357 -9.01245117 6.22705078 C-7.07891671 1.76504818 -4.91292999 -0.0309964 0 0 Z " fill="#4F22B5" transform="translate(463.012451171875,287.77294921875)" data-index="16"></path>
<path d="M0 0 C10.125 0 10.125 0 14 1 C10.00439392 3.83022097 6.57262677 2.76210446 2 2 C1.91924335 4.29109597 1.86092269 6.58299267 1.8125 8.875 C1.77769531 10.15117187 1.74289062 11.42734375 1.70703125 12.7421875 C1.80371094 13.81726563 1.90039062 14.89234375 2 16 C2.99 16.66 3.98 17.32 5 18 C3.35 18 1.7 18 0 18 C0 12.06 0 6.12 0 0 Z " fill="#3D1AC3" transform="translate(499,334)" data-index="17"></path>
<path d="M0 0 C3.38573271 1.12857757 4.31626011 2.52266905 6.46875 5.24609375 C8.80360374 7.92045429 11.50585033 10.12054473 14.23046875 12.38671875 C16 14 16 14 18 17 C10.95626971 13.80684227 5.21399003 7.60503928 0 2 C0 1.34 0 0.68 0 0 Z " fill="#443BA3" transform="translate(355,521)" data-index="18"></path>
<path d="M0 0 C1.32 0.33 2.64 0.66 4 1 C2.989375 1.639375 1.97875 2.27875 0.9375 2.9375 C-0.78929694 4.23687611 -0.78929694 4.23687611 -2 6 C-2.24689134 9.13277677 -1.63001632 11.94155714 -1 15 C-1 15.99 -1 16.98 -1 18 C-3.72701737 15.38660835 -4.28530943 13.21507358 -4.4375 9.5625 C-4.31660942 5.25310636 -3.1481021 3.04972391 0 0 Z " fill="#342C93" transform="translate(342,562)" data-index="19"></path>
<path d="M0 0 C0.74056641 0.02255859 1.48113281 0.04511719 2.24414062 0.06835938 C4.05947357 0.1269185 5.87375681 0.21659114 7.6875 0.3125 C7.6875 0.6425 7.6875 0.9725 7.6875 1.3125 C6.89085937 1.34988281 6.09421875 1.38726562 5.2734375 1.42578125 C-2.99437012 1.79756336 -2.99437012 1.79756336 -10.3125 5.3125 C-11.73807356 7.86971737 -11.73807356 7.86971737 -12.3125 10.3125 C-12.6425 10.3125 -12.9725 10.3125 -13.3125 10.3125 C-13.625 8.125 -13.625 8.125 -13.3125 5.3125 C-9.28616406 -0.03497742 -6.2323109 -0.36201985 0 0 Z " fill="#3E1989" transform="translate(420.3125,240.6875)" data-index="20"></path>
<path d="M0 0 C2.91327971 -0.12138665 4.35784664 -0.1210632 7 1 C10.02227252 4.08534603 12.52919851 7.46386592 15 11 C14.67 11.66 14.34 12.32 14 13 C11.01898273 11.21138964 10.10275424 10.31468487 9 6.9375 C8.30928004 3.93133576 8.30928004 3.93133576 6.125 2.75 C5.073125 2.37875 5.073125 2.37875 4 2 C2.66666667 1.33333333 1.33333333 0.66666667 0 0 Z " fill="#3B3195" transform="translate(354,493)" data-index="21"></path>
<path d="M0 0 C0.33 0.99 0.66 1.98 1 3 C-0.43122782 4.48523642 -1.87020889 5.96300462 -3.3125 7.4375 C-4.51326172 8.67306641 -4.51326172 8.67306641 -5.73828125 9.93359375 C-8 12 -8 12 -11 13 C-9.74615087 9.23845262 -7.85799698 7.72808802 -5 5 C-4.071875 4.071875 -3.14375 3.14375 -2.1875 2.1875 C-1.1046875 1.1046875 -1.1046875 1.1046875 0 0 Z " fill="#30B0E1" transform="translate(614,510)" data-index="22"></path>
<path d="M0 0 C0.66 0.33 1.32 0.66 2 1 C1.13375 2.0209375 1.13375 2.0209375 0.25 3.0625 C-2.19835514 6.25896365 -4.06450515 9.47463438 -6 13 C-6.75 11.375 -6.75 11.375 -7 9 C-5.0470421 5.58232367 -2.9301585 2.63714265 0 0 Z " fill="#381B6E" transform="translate(368,196)" data-index="23"></path>
<path d="M0 0 C0.99 0.33 1.98 0.66 3 1 C0.36 3.64 -2.28 6.28 -5 9 C-5.33 8.01 -5.66 7.02 -6 6 C-5.38125 5.7525 -4.7625 5.505 -4.125 5.25 C-1.64931313 3.79371361 -1.04874998 2.62187494 0 0 Z " fill="#358CE6" transform="translate(577,480)" data-index="24"></path>
<path d="M0 0 C2 3 2 3 2.9375 6.625 C3.288125 7.73875 3.63875 8.8525 4 10 C4.99 10.33 5.98 10.66 7 11 C4.625 10.6875 4.625 10.6875 2 10 C-0.4294516 6.3558226 -0.16179575 4.28758728 0 0 Z " fill="#542DB5" transform="translate(452,348)" data-index="25" style="opacity: 1;"></path>
<path d="M0 0 C4.04420651 1.77945087 7.46078487 4.39529673 11 7 C10.01 7.495 10.01 7.495 9 8 C7.49460339 7.05016642 5.99579653 6.08988109 4.5 5.125 C3.6646875 4.59132813 2.829375 4.05765625 1.96875 3.5078125 C1.3190625 3.01023437 0.669375 2.51265625 0 2 C0 1.34 0 0.68 0 0 Z " fill="#352EA0" transform="translate(355,563)" data-index="26"></path>
<path d="M0 0 C4.1424367 1.38081223 5.32203099 3.59825558 8 7 C7.67 7.66 7.34 8.32 7 9 C5.82737096 7.88121617 4.66204862 6.75476949 3.5 5.625 C2.8503125 4.99851562 2.200625 4.37203125 1.53125 3.7265625 C0 2 0 2 0 0 Z " fill="#3A3194" transform="translate(355,521)" data-index="27"></path>
<path d="M0 0 C1 3 1 3 0.22265625 4.82421875 C-0.8515625 6.54947917 -1.92578125 8.27473958 -3 10 C-3.66 10 -4.32 10 -5 10 C-3.66511872 6.40608886 -2.03977277 3.24509304 0 0 Z " fill="#4B51E5" transform="translate(539,423)" data-index="28" style="opacity: 1;"></path>
<path d="M0 0 C-0.556875 0.226875 -1.11375 0.45375 -1.6875 0.6875 C-4.63246684 2.35896766 -6.68156544 4.55276352 -9 7 C-8.6875 4.625 -8.6875 4.625 -8 2 C-4.77208445 -0.1519437 -3.71599191 -0.20086443 0 0 Z " fill="#322681" transform="translate(353,493)" data-index="29"></path>
</svg>